name ../IE_Laxity/ie_15.mot
datacolumns  10
datarows 70
range   14.00000000 14.69000000
cursor 1.0 1.0 0.0
keys m_key
wrap
enforce_loops no
enforce_constraints no
calc_derivatives -1.000000
event_color 0.000000 0.000000 0.000000
endheader
            time femur_r_force_vx femur_r_force_vy femur_r_force_vz femur_r_force_px femur_r_force_py femur_r_force_pz femur_r_torque_x femur_r_torque_y femur_r_torque_z 
     14.00000000       0.00000000       0.00000000       0.00000000      -0.02255621      -0.51082145       0.00000000      -0.02874651      -0.10728344       0.00000000 
     14.01000000       0.00000000       0.00000000       0.00000000      -0.02255621      -0.51082145       0.00000000      -0.02780314      -0.10376274       0.00000000 
     14.02000000       0.00000000       0.00000000       0.00000000      -0.02255621      -0.51082145       0.00000000      -0.02687518      -0.10029952       0.00000000 
     14.03000000       0.00000000       0.00000000       0.00000000      -0.02255621      -0.51082145       0.00000000      -0.02596263      -0.09689385       0.00000000 
     14.04000000       0.00000000       0.00000000       0.00000000      -0.02255621      -0.51082145       0.00000000      -0.02506553      -0.09354582       0.00000000 
     14.05000000       0.00000000       0.00000000       0.00000000      -0.02255621      -0.51082145       0.00000000      -0.02418389      -0.09025551       0.00000000 
     14.06000000       0.00000000       0.00000000       0.00000000      -0.02255621      -0.51082145       0.00000000      -0.02331774      -0.08702301       0.00000000 
     14.07000000       0.00000000       0.00000000       0.00000000      -0.02255621      -0.51082145       0.00000000      -0.02246711      -0.08384839       0.00000000 
     14.08000000       0.00000000       0.00000000       0.00000000      -0.02255621      -0.51082145       0.00000000      -0.02163200      -0.08073173       0.00000000 
     14.09000000       0.00000000       0.00000000       0.00000000      -0.02255621      -0.51082145       0.00000000      -0.02081245      -0.07767312       0.00000000 
     14.10000000       0.00000000       0.00000000       0.00000000      -0.02255621      -0.51082145       0.00000000      -0.02000847      -0.07467262       0.00000000 
     14.11000000       0.00000000       0.00000000       0.00000000      -0.02255621      -0.51082145       0.00000000      -0.01922008      -0.07173031       0.00000000 
     14.12000000       0.00000000       0.00000000       0.00000000      -0.02255621      -0.51082145       0.00000000      -0.01844730      -0.06884627       0.00000000 
     14.13000000       0.00000000       0.00000000       0.00000000      -0.02255621      -0.51082145       0.00000000      -0.01769016      -0.06602057       0.00000000 
     14.14000000       0.00000000       0.00000000       0.00000000      -0.02255621      -0.51082145       0.00000000      -0.01694866      -0.06325327       0.00000000 
     14.15000000       0.00000000       0.00000000       0.00000000      -0.02255621      -0.51082145       0.00000000      -0.01622283      -0.06054444       0.00000000 
     14.16000000       0.00000000       0.00000000       0.00000000      -0.02255621      -0.51082145       0.00000000      -0.01551269      -0.05789416       0.00000000 
     14.17000000       0.00000000       0.00000000       0.00000000      -0.02255621      -0.51082145       0.00000000      -0.01481826      -0.05530249       0.00000000 
     14.18000000       0.00000000       0.00000000       0.00000000      -0.02255621      -0.51082145       0.00000000      -0.01413954      -0.05276949       0.00000000 
     14.19000000       0.00000000       0.00000000       0.00000000      -0.02255621      -0.51082145       0.00000000      -0.01347657      -0.05029523       0.00000000 
     14.20000000       0.00000000       0.00000000       0.00000000      -0.02255621      -0.51082145       0.00000000      -0.01282934      -0.04787977       0.00000000 
     14.21000000       0.00000000       0.00000000       0.00000000      -0.02255621      -0.51082145       0.00000000      -0.01219789      -0.04552316       0.00000000 
     14.22000000       0.00000000       0.00000000       0.00000000      -0.02255621      -0.51082145       0.00000000      -0.01158223      -0.04322547       0.00000000 
     14.23000000       0.00000000       0.00000000       0.00000000      -0.02255621      -0.51082145       0.00000000      -0.01098237      -0.04098675       0.00000000 
     14.24000000       0.00000000       0.00000000       0.00000000      -0.02255621      -0.51082145       0.00000000      -0.01039832      -0.03880706       0.00000000 
     14.25000000       0.00000000       0.00000000       0.00000000      -0.02255621      -0.51082145       0.00000000      -0.00983011      -0.03668646       0.00000000 
     14.26000000       0.00000000       0.00000000       0.00000000      -0.02255621      -0.51082145       0.00000000      -0.00927774      -0.03462499       0.00000000 
     14.27000000       0.00000000       0.00000000       0.00000000      -0.02255621      -0.51082145       0.00000000      -0.00874123      -0.03262271       0.00000000 
     14.28000000       0.00000000       0.00000000       0.00000000      -0.02255621      -0.51082145       0.00000000      -0.00822059      -0.03067967       0.00000000 
     14.29000000       0.00000000       0.00000000       0.00000000      -0.02255621      -0.51082145       0.00000000      -0.00771584      -0.02879591       0.00000000 
     14.30000000       0.00000000       0.00000000       0.00000000      -0.02255621      -0.51082145       0.00000000      -0.00722699      -0.02697148       0.00000000 
     14.31000000       0.00000000       0.00000000       0.00000000      -0.02255621      -0.51082145       0.00000000      -0.00675404      -0.02520644       0.00000000 
     14.32000000       0.00000000       0.00000000       0.00000000      -0.02255621      -0.51082145       0.00000000      -0.00629702      -0.02350081       0.00000000 
     14.33000000       0.00000000       0.00000000       0.00000000      -0.02255621      -0.51082145       0.00000000      -0.00585594      -0.02185465       0.00000000 
     14.34000000       0.00000000       0.00000000       0.00000000      -0.02255621      -0.51082145       0.00000000      -0.00543079      -0.02026799       0.00000000 
     14.35000000       0.00000000       0.00000000       0.00000000      -0.02255621      -0.51082145       0.00000000      -0.00502160      -0.01874088       0.00000000 
     14.36000000       0.00000000       0.00000000       0.00000000      -0.02255621      -0.51082145       0.00000000      -0.00462838      -0.01727335       0.00000000 
     14.37000000       0.00000000       0.00000000       0.00000000      -0.02255621      -0.51082145       0.00000000      -0.00425113      -0.01586543       0.00000000 
     14.38000000       0.00000000       0.00000000       0.00000000      -0.02255621      -0.51082145       0.00000000      -0.00388987      -0.01451718       0.00000000 
     14.39000000       0.00000000       0.00000000       0.00000000      -0.02255621      -0.51082145       0.00000000      -0.00354459      -0.01322861       0.00000000 
     14.40000000       0.00000000       0.00000000       0.00000000      -0.02255621      -0.51082145       0.00000000      -0.00321532      -0.01199976       0.00000000 
     14.41000000       0.00000000       0.00000000       0.00000000      -0.02255621      -0.51082145       0.00000000      -0.00290207      -0.01083066       0.00000000 
     14.42000000       0.00000000       0.00000000       0.00000000      -0.02255621      -0.51082145       0.00000000      -0.00260482      -0.00972133       0.00000000 
     14.43000000       0.00000000       0.00000000       0.00000000      -0.02255621      -0.51082145       0.00000000      -0.00232361      -0.00867182       0.00000000 
     14.44000000       0.00000000       0.00000000       0.00000000      -0.02255621      -0.51082145       0.00000000      -0.00205842      -0.00768214       0.00000000 
     14.45000000       0.00000000       0.00000000       0.00000000      -0.02255621      -0.51082145       0.00000000      -0.00180928      -0.00675231       0.00000000 
     14.46000000       0.00000000       0.00000000       0.00000000      -0.02255621      -0.51082145       0.00000000      -0.00157618      -0.00588237       0.00000000 
     14.47000000       0.00000000       0.00000000       0.00000000      -0.02255621      -0.51082145       0.00000000      -0.00135913      -0.00507232       0.00000000 
     14.48000000       0.00000000       0.00000000       0.00000000      -0.02255621      -0.51082145       0.00000000      -0.00115813      -0.00432220       0.00000000 
     14.49000000       0.00000000       0.00000000       0.00000000      -0.02255621      -0.51082145       0.00000000      -0.00097320      -0.00363203       0.00000000 
     14.50000000       0.00000000       0.00000000       0.00000000      -0.02255621      -0.51082145       0.00000000      -0.00080433      -0.00300180       0.00000000 
     14.51000000       0.00000000       0.00000000       0.00000000      -0.02255621      -0.51082145       0.00000000       0.00000000       0.00000000       0.00000000 
     14.52000000       0.00000000       0.00000000       0.00000000      -0.02255621      -0.51082145       0.00000000       0.00000000       0.00000000       0.00000000 
     14.53000000       0.00000000       0.00000000       0.00000000      -0.02255621      -0.51082145       0.00000000       0.00000000       0.00000000       0.00000000 
     14.54000000       0.00000000       0.00000000       0.00000000      -0.02255621      -0.51082145       0.00000000       0.00000000       0.00000000       0.00000000 
     14.55000000       0.00000000       0.00000000       0.00000000      -0.02255621      -0.51082145       0.00000000       0.00000000       0.00000000       0.00000000 
     14.56000000       0.00000000       0.00000000       0.00000000      -0.02255621      -0.51082145       0.00000000       0.00000000       0.00000000       0.00000000 
     14.57000000       0.00000000       0.00000000       0.00000000      -0.02255621      -0.51082145       0.00000000       0.00000000       0.00000000       0.00000000 
     14.58000000       0.00000000       0.00000000       0.00000000      -0.02255621      -0.51082145       0.00000000       0.00000000       0.00000000       0.00000000 
     14.59000000       0.00000000       0.00000000       0.00000000      -0.02255621      -0.51082145       0.00000000       0.00000000       0.00000000       0.00000000 
     14.60000000       0.00000000       0.00000000       0.00000000      -0.02255621      -0.51082145       0.00000000       0.00000000       0.00000000       0.00000000 
     14.61000000       0.00000000       0.00000000       0.00000000      -0.02255621      -0.51082145       0.00000000       0.00000000       0.00000000       0.00000000 
     14.62000000       0.00000000       0.00000000       0.00000000      -0.02255621      -0.51082145       0.00000000       0.00000000       0.00000000       0.00000000 
     14.63000000       0.00000000       0.00000000       0.00000000      -0.02255621      -0.51082145       0.00000000       0.00000000       0.00000000       0.00000000 
     14.64000000       0.00000000       0.00000000       0.00000000      -0.02255621      -0.51082145       0.00000000       0.00000000       0.00000000       0.00000000 
     14.65000000       0.00000000       0.00000000       0.00000000      -0.02255621      -0.51082145       0.00000000       0.00000000       0.00000000       0.00000000 
     14.66000000       0.00000000       0.00000000       0.00000000      -0.02255621      -0.51082145       0.00000000       0.00000000       0.00000000       0.00000000 
     14.67000000       0.00000000       0.00000000       0.00000000      -0.02255621      -0.51082145       0.00000000       0.00000000       0.00000000       0.00000000 
     14.68000000       0.00000000       0.00000000       0.00000000      -0.02255621      -0.51082145       0.00000000       0.00000000       0.00000000       0.00000000 
     14.69000000       0.00000000       0.00000000       0.00000000      -0.02255621      -0.51082145       0.00000000       0.00000000       0.00000000       0.00000000 
